<svg width="140" height="140" viewBox="0 0 140 140" fill="none" xmlns="http://www.w3.org/2000/svg">
  <defs>
    <linearGradient id="blue" x1="0" y1="0" x2="1" y2="1">
      <stop offset="0" stop-color="#0b3d86"/>
      <stop offset="1" stop-color="#051c49"/>
    </linearGradient>
    <linearGradient id="gold" x1="0" y1="1" x2="1" y2="0">
      <stop offset="0" stop-color="#d88900"/>
      <stop offset="1" stop-color="#f0b127"/>
    </linearGradient>
  </defs>
  <path d="M70 8 20 24v45c0 30 17 50 50 63 33-13 50-33 50-63V24L70 8Z" fill="url(#blue)"/>
  <path d="M34 38h38c12 0 21 8 21 19s-9 19-21 19H53v24H34V38Zm35 43c7 0 12-5 12-11s-5-11-12-11H53v22h16Z" fill="white" opacity="0.95"/>
  <path d="M10 94 82 22l49-11-11 49-72 72c-11 5-23-7-18-18Z" fill="url(#gold)"/>
</svg>
